<svg width="208" height="321" viewBox="0 0 208 321" fill="none" xmlns="http://www.w3.org/2000/svg">
<ellipse cx="102" cy="301" rx="96" ry="20" fill="#DBC883"/>
<path d="M102.28 69L102.28 246.002" stroke="#6E4C0C" stroke-width="2"/>
<path d="M38.4325 48.0087C39.5135 48.0852 65.0927 50.0699 82.4666 65.8814L82.8209 66.2058C100.2 82.3163 101.93 105.932 101.994 106.929C102.05 107.766 101.704 108.582 101.046 109.169C100.389 109.757 99.4856 110.056 98.5681 109.991C97.4878 109.914 71.9072 107.936 54.5279 92.1221L54.1752 91.7983C36.8004 75.6837 35.0707 52.0677 35.0056 51.0708C34.9511 50.2331 35.297 49.4168 35.9541 48.8292C36.6104 48.2436 37.5151 47.9439 38.4325 48.0087Z" fill="#3FAC4A"/>
<path d="M38.4325 48.0087C39.5135 48.0852 65.0927 50.0699 82.4666 65.8814L82.8209 66.2058C100.2 82.3163 101.93 105.932 101.994 106.929C102.05 107.766 101.704 108.582 101.046 109.169C100.389 109.757 99.4856 110.056 98.5681 109.991C97.4878 109.914 71.9072 107.936 54.5279 92.1221L54.1752 91.7983C36.8004 75.6837 35.0707 52.0677 35.0056 51.0708C34.9511 50.2331 35.297 49.4168 35.9541 48.8292C36.6104 48.2436 37.5151 47.9439 38.4325 48.0087Z" fill="black" fill-opacity="0.2"/>
<path d="M160.731 32.1818C160.583 33.1787 156.942 56.7549 142.128 71.7544L141.824 72.0601C126.756 87.0436 106.476 86.9918 105.62 86.9815C104.902 86.9741 104.233 86.5962 103.781 85.9458C103.33 85.2954 103.144 84.4364 103.269 83.5903C103.417 82.5942 107.054 59.0162 121.869 44.0119L122.172 43.7075C137.244 28.7285 157.524 28.7804 158.38 28.7899C159.099 28.7981 159.769 29.1761 160.22 29.8265C160.669 30.476 160.856 31.3357 160.731 32.1818Z" fill="#3FAC4A"/>
<path d="M160.731 32.1818C160.583 33.1787 156.942 56.7549 142.128 71.7544L141.824 72.0601C126.756 87.0436 106.476 86.9918 105.62 86.9815C104.902 86.9741 104.233 86.5962 103.781 85.9458C103.33 85.2954 103.144 84.4364 103.269 83.5903C103.417 82.5942 107.054 59.0162 121.869 44.0119L122.172 43.7075C137.244 28.7285 157.524 28.7804 158.38 28.7899C159.099 28.7981 159.769 29.1761 160.22 29.8265C160.669 30.476 160.856 31.3357 160.731 32.1818Z" fill="black" fill-opacity="0.2"/>
<path d="M160.731 94.1818C160.583 95.1787 156.942 118.755 142.128 133.754L141.824 134.06C126.756 149.044 106.476 148.992 105.62 148.982C104.902 148.974 104.233 148.596 103.781 147.946C103.33 147.295 103.144 146.436 103.269 145.59C103.417 144.594 107.054 121.016 121.869 106.012L122.172 105.708C137.244 90.7285 157.524 90.7804 158.38 90.7899C159.099 90.7981 159.769 91.1761 160.22 91.8265C160.669 92.476 160.856 93.3357 160.731 94.1818Z" fill="#3FAC4A"/>
<path d="M160.731 94.1818C160.583 95.1787 156.942 118.755 142.128 133.754L141.824 134.06C126.756 149.044 106.476 148.992 105.62 148.982C104.902 148.974 104.233 148.596 103.781 147.946C103.33 147.295 103.144 146.436 103.269 145.59C103.417 144.594 107.054 121.016 121.869 106.012L122.172 105.708C137.244 90.7285 157.524 90.7804 158.38 90.7899C159.099 90.7981 159.769 91.1761 160.22 91.8265C160.669 92.476 160.856 93.3357 160.731 94.1818Z" fill="black" fill-opacity="0.2"/>
<path d="M40.2116 119.879C41.2261 119.918 65.2395 121.014 82.1585 136.803L82.5036 137.127C99.4401 153.226 102.052 177.724 102.154 178.759C102.241 179.627 101.952 180.489 101.362 181.125C100.772 181.761 99.9387 182.106 99.0777 182.073C98.0639 182.034 74.0493 180.944 57.1253 165.154L56.7816 164.83C39.8491 148.726 37.2373 124.228 37.1344 123.194C37.0482 122.325 37.3375 121.462 37.9275 120.826C38.5169 120.192 39.3505 119.847 40.2116 119.879Z" fill="#3FAC4A" fill-opacity="0.99"/>
<path d="M40.2116 119.879C41.2261 119.918 65.2395 121.014 82.1585 136.803L82.5036 137.127C99.4401 153.226 102.052 177.724 102.154 178.759C102.241 179.627 101.952 180.489 101.362 181.125C100.772 181.761 99.9387 182.106 99.0777 182.073C98.0639 182.034 74.0493 180.944 57.1253 165.154L56.7816 164.83C39.8491 148.726 37.2373 124.228 37.1344 123.194C37.0482 122.325 37.3375 121.462 37.9275 120.826C38.5169 120.192 39.3505 119.847 40.2116 119.879Z" fill="black" fill-opacity="0.2"/>
<path d="M160.731 157.182C160.583 158.179 156.942 181.755 142.128 196.754L141.824 197.06C126.756 212.044 106.476 211.992 105.62 211.982C104.902 211.974 104.233 211.596 103.781 210.946C103.33 210.295 103.144 209.436 103.269 208.59C103.417 207.594 107.054 184.016 121.869 169.012L122.172 168.708C137.244 153.729 157.524 153.78 158.38 153.79C159.099 153.798 159.769 154.176 160.22 154.826C160.669 155.476 160.856 156.336 160.731 157.182Z" fill="#3FAC4A" fill-opacity="0.99"/>
<path d="M160.731 157.182C160.583 158.179 156.942 181.755 142.128 196.754L141.824 197.06C126.756 212.044 106.476 211.992 105.62 211.982C104.902 211.974 104.233 211.596 103.781 210.946C103.33 210.295 103.144 209.436 103.269 208.59C103.417 207.594 107.054 184.016 121.869 169.012L122.172 168.708C137.244 153.729 157.524 153.78 158.38 153.79C159.099 153.798 159.769 154.176 160.22 154.826C160.669 155.476 160.856 156.336 160.731 157.182Z" fill="black" fill-opacity="0.2"/>
<path d="M57 233H54.0288L55.1471 235.753L81.1471 299.753L81.6538 301H83H126.5H127.917L128.387 299.663L150.887 235.663L151.823 233H149H57Z" fill="#865C0B" stroke="#0E1042" stroke-width="4"/>
</svg>
