<svg width="208" height="321" viewBox="0 0 208 321" fill="none" xmlns="http://www.w3.org/2000/svg">
<ellipse cx="104" cy="275" rx="96" ry="20" fill="#DBC883"/>
<path d="M102.28 69L102.28 246.002" stroke="#6E4C0C" stroke-width="2"/>
<path d="M76.4345 90.0038C76.8863 90.0371 87.576 90.9014 94.8368 97.787L94.9849 97.9283C102.248 104.944 102.971 115.229 102.998 115.663C103.021 116.027 102.876 116.382 102.602 116.638C102.327 116.894 101.949 117.024 101.566 116.996C101.114 116.963 90.4239 116.101 83.1609 109.214L83.0135 109.073C75.7524 102.056 75.0295 91.7714 75.0023 91.3373C74.9796 90.9725 75.1241 90.617 75.3987 90.3611C75.673 90.1061 76.0511 89.9756 76.4345 90.0038Z" fill="#3FAC4A"/>
<path d="M76.4345 90.0038C76.8863 90.0371 87.576 90.9014 94.8368 97.787L94.9849 97.9283C102.248 104.944 102.971 115.229 102.998 115.663C103.021 116.027 102.876 116.382 102.602 116.638C102.327 116.894 101.949 117.024 101.566 116.996C101.114 116.963 90.4239 116.101 83.1609 109.214L83.0135 109.073C75.7524 102.056 75.0295 91.7714 75.0023 91.3373C74.9796 90.9725 75.1241 90.617 75.3987 90.3611C75.673 90.1061 76.0511 89.9756 76.4345 90.0038Z" fill="black" fill-opacity="0.2"/>
<path d="M129.913 70.017C129.855 70.3348 128.42 77.8487 121.528 82.466L121.386 82.5601C114.371 87.169 104.666 86.8876 104.257 86.8731C103.913 86.8614 103.587 86.7314 103.363 86.5169C103.139 86.3024 103.038 86.0245 103.087 85.7548C103.145 85.4372 104.577 77.9227 111.471 73.3038L111.612 73.2102C118.629 68.6028 128.334 68.8842 128.743 68.8984C129.087 68.9104 129.413 69.0404 129.637 69.2549C129.861 69.4691 129.962 69.7472 129.913 70.017Z" fill="#3FAC4A" fill-opacity="0.99"/>
<path d="M129.913 70.017C129.855 70.3348 128.42 77.8487 121.528 82.466L121.386 82.5601C114.371 87.169 104.666 86.8876 104.257 86.8731C103.913 86.8614 103.587 86.7314 103.363 86.5169C103.139 86.3024 103.038 86.0245 103.087 85.7548C103.145 85.4372 104.577 77.9227 111.471 73.3038L111.612 73.2102C118.629 68.6028 128.334 68.8842 128.743 68.8984C129.087 68.9104 129.413 69.0404 129.637 69.2549C129.861 69.4691 129.962 69.7472 129.913 70.017Z" fill="black" fill-opacity="0.2"/>
<path d="M129.892 127.271C129.828 127.669 128.251 137.08 121.356 142.994L121.215 143.115C114.2 149.021 104.64 148.88 104.236 148.871C103.898 148.864 103.58 148.709 103.363 148.446C103.147 148.183 103.054 147.838 103.108 147.5C103.172 147.103 104.747 137.691 111.643 131.775L111.784 131.655C118.8 125.751 128.36 125.892 128.764 125.9C129.102 125.908 129.421 126.063 129.637 126.326C129.853 126.589 129.946 126.934 129.892 127.271Z" fill="#3FAC4A"/>
<path d="M129.892 127.271C129.828 127.669 128.251 137.08 121.356 142.994L121.215 143.115C114.2 149.021 104.64 148.88 104.236 148.871C103.898 148.864 103.58 148.709 103.363 148.446C103.147 148.183 103.054 147.838 103.108 147.5C103.172 147.103 104.747 137.691 111.643 131.775L111.784 131.655C118.8 125.751 128.36 125.892 128.764 125.9C129.102 125.908 129.421 126.063 129.637 126.326C129.853 126.589 129.946 126.934 129.892 127.271Z" fill="black" fill-opacity="0.2"/>
<path d="M71.6062 159.938C72.1132 159.946 84.1118 160.206 92.4806 165.799L92.6513 165.913C101.027 171.618 102.194 180.43 102.24 180.803C102.278 181.115 102.129 181.427 101.83 181.66C101.531 181.892 101.113 182.021 100.683 182.014C100.176 182.006 88.177 181.749 79.8056 176.155L79.6356 176.041C71.2618 170.334 70.0947 161.522 70.0491 161.15C70.0109 160.837 70.1604 160.525 70.459 160.292C70.7572 160.061 71.1759 159.931 71.6062 159.938Z" fill="#3FAC4A" fill-opacity="0.99"/>
<path d="M71.6062 159.938C72.1132 159.946 84.1118 160.206 92.4806 165.799L92.6513 165.913C101.027 171.618 102.194 180.43 102.24 180.803C102.278 181.115 102.129 181.427 101.83 181.66C101.531 181.892 101.113 182.021 100.683 182.014C100.176 182.006 88.177 181.749 79.8056 176.155L79.6356 176.041C71.2618 170.334 70.0947 161.522 70.0491 161.15C70.0109 160.837 70.1604 160.525 70.459 160.292C70.7572 160.061 71.1759 159.931 71.6062 159.938Z" fill="black" fill-opacity="0.2"/>
<path d="M129.896 191.221C129.834 191.602 128.285 200.634 121.39 206.289L121.249 206.404C114.234 212.05 104.645 211.882 104.24 211.871C103.901 211.863 103.581 211.713 103.363 211.46C103.145 211.207 103.051 210.875 103.104 210.551C103.167 210.17 104.713 201.137 111.608 195.481L111.749 195.366C118.766 189.722 128.355 189.89 128.76 189.9C129.099 189.908 129.419 190.059 129.637 190.312C129.855 190.565 129.949 190.896 129.896 191.221Z" fill="#3FAC4A" fill-opacity="0.99"/>
<path d="M129.896 191.221C129.834 191.602 128.285 200.634 121.39 206.289L121.249 206.404C114.234 212.05 104.645 211.882 104.24 211.871C103.901 211.863 103.581 211.713 103.363 211.46C103.145 211.207 103.051 210.875 103.104 210.551C103.167 210.17 104.713 201.137 111.608 195.481L111.749 195.366C118.766 189.722 128.355 189.89 128.76 189.9C129.099 189.908 129.419 190.059 129.637 190.312C129.855 190.565 129.949 190.896 129.896 191.221Z" fill="black" fill-opacity="0.2"/>
<path d="M80 236H77.1236L78.1251 238.696L91.1251 273.696L91.6094 275H93H114.75H116.208L116.654 273.612L127.904 238.612L128.744 236H126H80Z" fill="#865C0B" stroke="#0E1042" stroke-width="4"/>
</svg>
