<svg width="208" height="321" viewBox="0 0 208 321" fill="none" xmlns="http://www.w3.org/2000/svg">
<ellipse cx="104" cy="285" rx="96" ry="20" fill="#DBC883"/>
<path d="M102.28 69L102.28 246.002" stroke="#6E4C0C" stroke-width="2"/>
<path d="M59.3567 84.0046C60.0989 84.0453 77.6606 85.1017 89.589 93.5175L89.8323 93.6902C101.764 102.265 102.952 114.835 102.996 115.366C103.034 115.811 102.796 116.245 102.345 116.558C101.894 116.871 101.274 117.03 100.644 116.995C99.9021 116.954 82.3393 115.901 70.4072 107.484L70.165 107.312C58.2361 98.7348 57.0485 86.165 57.0038 85.6345C56.9664 85.1886 57.2039 84.7541 57.6551 84.4413C58.1057 84.1297 58.7268 83.9702 59.3567 84.0046Z" fill="#3FAC4A"/>
<path d="M59.3567 84.0046C60.0989 84.0453 77.6606 85.1017 89.589 93.5175L89.8323 93.6902C101.764 102.265 102.952 114.835 102.996 115.366C103.034 115.811 102.796 116.245 102.345 116.558C101.894 116.871 101.274 117.03 100.644 116.995C99.9021 116.954 82.3393 115.901 70.4072 107.484L70.165 107.312C58.2361 98.7348 57.0485 86.165 57.0038 85.6345C56.9664 85.1886 57.2039 84.7541 57.6551 84.4413C58.1057 84.1297 58.7268 83.9702 59.3567 84.0046Z" fill="black" fill-opacity="0.2"/>
<path d="M140.874 62.47C140.792 62.9294 138.751 73.7928 129.05 80.4883L128.851 80.6247C118.978 87.3083 105.341 86.9337 104.766 86.9142C104.282 86.8983 103.826 86.7116 103.511 86.4024C103.196 86.0931 103.056 85.6918 103.126 85.3019C103.208 84.8428 105.246 73.9785 114.948 67.2808L115.147 67.145C125.022 60.4635 138.659 60.8381 139.234 60.8573C139.718 60.8736 140.175 61.0603 140.49 61.3695C140.803 61.6783 140.944 62.08 140.874 62.47Z" fill="#3FAC4A" fill-opacity="0.99"/>
<path d="M140.874 62.47C140.792 62.9294 138.751 73.7928 129.05 80.4883L128.851 80.6247C118.978 87.3083 105.341 86.9337 104.766 86.9142C104.282 86.8983 103.826 86.7116 103.511 86.4024C103.196 86.0931 103.056 85.6918 103.126 85.3019C103.208 84.8428 105.246 73.9785 114.948 67.2808L115.147 67.145C125.022 60.4635 138.659 60.8381 139.234 60.8573C139.718 60.8736 140.175 61.0603 140.49 61.3695C140.803 61.6783 140.944 62.08 140.874 62.47Z" fill="black" fill-opacity="0.2"/>
<path d="M140.828 114.03C140.733 114.666 138.378 129.703 128.673 139.25L128.474 139.445C118.601 148.982 105.283 148.917 104.721 148.91C104.249 148.904 103.809 148.662 103.512 148.246C103.214 147.83 103.091 147.282 103.172 146.742C103.267 146.107 105.619 131.069 115.326 121.518L115.524 121.324C125.399 111.79 138.717 111.855 139.279 111.862C139.751 111.868 140.192 112.11 140.489 112.526C140.785 112.941 140.909 113.49 140.828 114.03Z" fill="#3FAC4A"/>
<path d="M140.828 114.03C140.733 114.666 138.378 129.703 128.673 139.25L128.474 139.445C118.601 148.982 105.283 148.917 104.721 148.91C104.249 148.904 103.809 148.662 103.512 148.246C103.214 147.83 103.091 147.282 103.172 146.742C103.267 146.107 105.619 131.069 115.326 121.518L115.524 121.324C125.399 111.79 138.717 111.855 139.279 111.862C139.751 111.868 140.192 112.11 140.489 112.526C140.785 112.941 140.909 113.49 140.828 114.03Z" fill="black" fill-opacity="0.2"/>
<path d="M59.2443 146.914C59.9529 146.931 76.7235 147.43 88.4611 156.336L88.7005 156.519C100.449 165.602 102.145 179.545 102.211 180.134C102.268 180.628 102.061 181.12 101.645 181.486C101.23 181.851 100.646 182.052 100.045 182.038C99.3367 182.021 82.5652 181.526 70.8241 172.618L70.5857 172.436C58.8404 163.35 57.1437 149.408 57.0772 148.819C57.0215 148.324 57.2281 147.831 57.6436 147.466C58.0587 147.102 58.6429 146.9 59.2443 146.914Z" fill="#3FAC4A" fill-opacity="0.99"/>
<path d="M59.2443 146.914C59.9529 146.931 76.7235 147.43 88.4611 156.336L88.7005 156.519C100.449 165.602 102.145 179.545 102.211 180.134C102.268 180.628 102.061 181.12 101.645 181.486C101.23 181.851 100.646 182.052 100.045 182.038C99.3367 182.021 82.5652 181.526 70.8241 172.618L70.5857 172.436C58.8404 163.35 57.1437 149.408 57.0772 148.819C57.0215 148.324 57.2281 147.831 57.6436 147.466C58.0587 147.102 58.6429 146.9 59.2443 146.914Z" fill="black" fill-opacity="0.2"/>
<path d="M134.873 186.496C134.798 186.964 132.934 198.036 124.763 204.988L124.595 205.13C116.281 212.073 104.945 211.901 104.466 211.89C104.065 211.881 103.688 211.698 103.431 211.389C103.174 211.079 103.063 210.673 103.127 210.276C103.203 209.808 105.063 198.736 113.236 191.781L113.403 191.64C121.719 184.699 133.055 184.871 133.534 184.882C133.936 184.891 134.313 185.074 134.57 185.383C134.826 185.692 134.937 186.098 134.873 186.496Z" fill="#3FAC4A" fill-opacity="0.99"/>
<path d="M134.873 186.496C134.798 186.964 132.934 198.036 124.763 204.988L124.595 205.13C116.281 212.073 104.945 211.901 104.466 211.89C104.065 211.881 103.688 211.698 103.431 211.389C103.174 211.079 103.063 210.673 103.127 210.276C103.203 209.808 105.063 198.736 113.236 191.781L113.403 191.64C121.719 184.699 133.055 184.871 133.534 184.882C133.936 184.891 134.313 185.074 134.57 185.383C134.826 185.692 134.937 186.098 134.873 186.496Z" fill="black" fill-opacity="0.2"/>
<path d="M70 233H67.0477L68.1426 235.742L86.5122 281.742L87.0147 283H88.3696H119.103H120.528L120.994 281.653L136.89 235.653L137.807 233H135H70Z" fill="#865C0B" stroke="#0E1042" stroke-width="4"/>
</svg>
