<svg width="208" height="321" viewBox="0 0 208 321" fill="none" xmlns="http://www.w3.org/2000/svg">
<path d="M102.28 45L102.28 246.002" stroke="#0D0E0D"/>
<path d="M38.4838 59.0081C39.5809 59.0797 65.5418 60.9363 83.1751 75.7277L83.5346 76.0313C101.173 91.1024 102.929 113.195 102.994 114.127C103.05 114.91 102.699 115.673 102.032 116.223C101.365 116.773 100.448 117.052 99.5168 116.992C98.4205 116.92 72.458 115.069 54.8194 100.275L54.4614 99.9726C36.8273 84.8976 35.0717 62.8052 35.0057 61.8727C34.9504 61.0891 35.3015 60.3254 35.9684 59.7757C36.6345 59.2279 37.5526 58.9475 38.4838 59.0081Z" fill="#3FAC4A"/>
<path d="M38.4838 59.0081C39.5809 59.0797 65.5418 60.9363 83.1751 75.7277L83.5346 76.0313C101.173 91.1024 102.929 113.195 102.994 114.127C103.05 114.91 102.699 115.673 102.032 116.223C101.365 116.773 100.448 117.052 99.5168 116.992C98.4205 116.92 72.458 115.069 54.8194 100.275L54.4614 99.9726C36.8273 84.8976 35.0717 62.8052 35.0057 61.8727C34.9504 61.0891 35.3015 60.3254 35.9684 59.7757C36.6345 59.2279 37.5526 58.9475 38.4838 59.0081Z" fill="black" fill-opacity="0.2"/>
<path d="M166.081 27.2213C165.919 28.3089 161.943 54.0305 145.757 70.3932L145.425 70.7267C128.96 87.0719 106.798 87.0123 105.864 87.001C105.079 86.9928 104.347 86.5804 103.854 85.8707C103.36 85.1611 103.157 84.2239 103.293 83.3008C103.455 82.214 107.426 56.4904 123.614 40.1225L123.945 39.7904C140.414 23.4502 162.576 23.5098 163.51 23.5203C164.296 23.5293 165.028 23.9418 165.522 24.6515C166.013 25.3602 166.217 26.2982 166.081 27.2213Z" fill="#3FAC4A"/>
<path d="M166.081 27.2213C165.919 28.3089 161.943 54.0305 145.757 70.3932L145.425 70.7267C128.96 87.0719 106.798 87.0123 105.864 87.001C105.079 86.9928 104.347 86.5804 103.854 85.8707C103.36 85.1611 103.157 84.2239 103.293 83.3008C103.455 82.214 107.426 56.4904 123.614 40.1225L123.945 39.7904C140.414 23.4502 162.576 23.5098 163.51 23.5203C164.296 23.5293 165.028 23.9418 165.522 24.6515C166.013 25.3602 166.217 26.2982 166.081 27.2213Z" fill="black" fill-opacity="0.2"/>
<path d="M166.081 89.2213C165.919 90.3089 161.943 116.031 145.757 132.393L145.425 132.727C128.96 149.072 106.798 149.012 105.864 149.001C105.079 148.993 104.347 148.58 103.854 147.871C103.36 147.161 103.157 146.224 103.293 145.301C103.455 144.214 107.426 118.49 123.614 102.122L123.945 101.79C140.414 85.4502 162.576 85.5098 163.51 85.5203C164.296 85.5293 165.028 85.9418 165.522 86.6515C166.013 87.3602 166.217 88.2982 166.081 89.2213Z" fill="#3FAC4A"/>
<path d="M166.081 89.2213C165.919 90.3089 161.943 116.031 145.757 132.393L145.425 132.727C128.96 149.072 106.798 149.012 105.864 149.001C105.079 148.993 104.347 148.58 103.854 147.871C103.36 147.161 103.157 146.224 103.293 145.301C103.455 144.214 107.426 118.49 123.614 102.122L123.945 101.79C140.414 85.4502 162.576 85.5098 163.51 85.5203C164.296 85.5293 165.028 85.9418 165.522 86.6515C166.013 87.3602 166.217 88.2982 166.081 89.2213Z" fill="black" fill-opacity="0.2"/>
<path d="M35.4813 126.616C36.5804 126.643 62.5951 127.449 80.8118 141.515L81.1834 141.804C99.4168 156.15 102.064 178.153 102.167 179.082C102.254 179.863 101.934 180.639 101.29 181.215C100.646 181.792 99.7409 182.108 98.8081 182.085C97.7097 182.057 71.6937 181.257 53.4715 167.189L53.1015 166.901C34.8726 152.551 32.2255 130.548 32.1218 129.619C32.0348 128.838 32.3548 128.061 32.9989 127.484C33.6423 126.91 34.5484 126.593 35.4813 126.616Z" fill="#3FAC4A"/>
<path d="M35.4813 126.616C36.5804 126.643 62.5951 127.449 80.8118 141.515L81.1834 141.804C99.4168 156.15 102.064 178.153 102.167 179.082C102.254 179.863 101.934 180.639 101.29 181.215C100.646 181.792 99.7409 182.108 98.8081 182.085C97.7097 182.057 71.6937 181.257 53.4715 167.189L53.1015 166.901C34.8726 152.551 32.2255 130.548 32.1218 129.619C32.0348 128.838 32.3548 128.061 32.9989 127.484C33.6423 126.91 34.5484 126.593 35.4813 126.616Z" fill="black" fill-opacity="0.2"/>
<path d="M166.081 152.221C165.919 153.309 161.943 179.031 145.757 195.393L145.425 195.727C128.96 212.072 106.798 212.012 105.864 212.001C105.079 211.993 104.347 211.58 103.854 210.871C103.36 210.161 103.157 209.224 103.293 208.301C103.455 207.214 107.426 181.49 123.614 165.122L123.945 164.79C140.414 148.45 162.576 148.51 163.51 148.52C164.296 148.529 165.028 148.942 165.522 149.651C166.013 150.36 166.217 151.298 166.081 152.221Z" fill="#3FAC4A"/>
<path d="M166.081 152.221C165.919 153.309 161.943 179.031 145.757 195.393L145.425 195.727C128.96 212.072 106.798 212.012 105.864 212.001C105.079 211.993 104.347 211.58 103.854 210.871C103.36 210.161 103.157 209.224 103.293 208.301C103.455 207.214 107.426 181.49 123.614 165.122L123.945 164.79C140.414 148.45 162.576 148.51 163.51 148.52C164.296 148.529 165.028 148.942 165.522 149.651C166.013 150.36 166.217 151.298 166.081 152.221Z" fill="black" fill-opacity="0.2"/>
<path d="M57 233H54.0288L55.1471 235.753L81.1471 299.753L81.6538 301H83H126.5H127.917L128.387 299.663L150.887 235.663L151.823 233H149H57Z" fill="#865C0B" stroke="#0E1042" stroke-width="4"/>
</svg>
